<svg xmlns="http://www.w3.org/2000/svg" xmlns:xlink="http://www.w3.org/1999/xlink" version="1.1" width="256" height="256" viewBox="0 0 256 256" xml:space="preserve">

<defs>
</defs>
<g style="stroke: none; stroke-width: 0; stroke-dasharray: none; stroke-linecap: butt; stroke-linejoin: miter; stroke-miterlimit: 10; fill: none; fill-rule: nonzero; opacity: 1;" transform="translate(1.4065934065934016 1.4065934065934016) scale(2.81 2.81)" >
	<path d="M 22.353 72.146 c 6.131 5.349 13.628 10.42 22.647 14.93 c 9.019 -4.509 16.516 -9.58 22.647 -14.93 C 51.886 71.433 38.115 71.433 22.353 72.146 z" style="stroke: none; stroke-width: 1; stroke-dasharray: none; stroke-linecap: butt; stroke-linejoin: miter; stroke-miterlimit: 10; fill: rgb(162,0,247); fill-rule: nonzero; opacity: 1;" transform=" matrix(1 0 0 1 0 0) " stroke-linecap="round" />
	<path d="M 9.921 58.519 c 3.683 5.228 8.467 10.41 14.444 15.327 h 41.27 c 5.977 -4.917 10.761 -10.099 14.444 -15.327 C 54.42 56.482 35.58 56.482 9.921 58.519 z" style="stroke: none; stroke-width: 1; stroke-dasharray: none; stroke-linecap: butt; stroke-linejoin: miter; stroke-miterlimit: 10; fill: rgb(1,104,248); fill-rule: nonzero; opacity: 1;" transform=" matrix(1 0 0 1 0 0) " stroke-linecap="round" />
	<path d="M 2.868 45.313 c 1.777 4.764 4.411 9.652 7.991 14.49 h 68.283 c 3.58 -4.838 6.214 -9.726 7.991 -14.49 C 55.317 43.478 34.683 43.478 2.868 45.313 z" style="stroke: none; stroke-width: 1; stroke-dasharray: none; stroke-linecap: butt; stroke-linejoin: miter; stroke-miterlimit: 10; fill: rgb(3,143,0); fill-rule: nonzero; opacity: 1;" transform=" matrix(1 0 0 1 0 0) " stroke-linecap="round" />
	<path d="M 0.011 31.231 c 0.114 4.567 1.084 9.479 3.021 14.53 h 83.936 c 1.937 -5.051 2.907 -9.963 3.021 -14.53 C 55.571 27.636 34.429 27.636 0.011 31.231 z" style="stroke: none; stroke-width: 1; stroke-dasharray: none; stroke-linecap: butt; stroke-linejoin: miter; stroke-miterlimit: 10; fill: rgb(248,245,1); fill-rule: nonzero; opacity: 1;" transform=" matrix(1 0 0 1 0 0) " stroke-linecap="round" />
	<path d="M 3.063 16.796 c -2.176 4.208 -3.251 9.31 -3.037 14.923 h 89.947 c 0.214 -5.613 -0.861 -10.715 -3.037 -14.923 C 55.299 13.301 34.701 13.301 3.063 16.796 z" style="stroke: none; stroke-width: 1; stroke-dasharray: none; stroke-linecap: butt; stroke-linejoin: miter; stroke-miterlimit: 10; fill: rgb(248,146,0); fill-rule: nonzero; opacity: 1;" transform=" matrix(1 0 0 1 0 0) " stroke-linecap="round" />
	<path d="M 2.622 17.677 h 84.756 C 81.379 4.833 65.599 -0.363 45 12.219 C 24.401 -0.363 8.621 4.833 2.622 17.677 z" style="stroke: none; stroke-width: 1; stroke-dasharray: none; stroke-linecap: butt; stroke-linejoin: miter; stroke-miterlimit: 10; fill: rgb(247,0,0); fill-rule: nonzero; opacity: 1;" transform=" matrix(1 0 0 1 0 0) " stroke-linecap="round" />
</g>
</svg>